<svg xmlns="http://www.w3.org/2000/svg" width="1400" height="800" viewBox="0 0 1400 800">
  <defs>
    <linearGradient id="bg" x1="0" y1="0" x2="1" y2="1">
      <stop offset="0%" stop-color="#060C18"/>
      <stop offset="100%" stop-color="#0D1B3E"/>
    </linearGradient>
    <linearGradient id="glowL" x1="0" y1="0" x2="1" y2="0">
      <stop offset="0%" stop-color="#3B82F6" stop-opacity="0.10"/>
      <stop offset="100%" stop-color="#3B82F6" stop-opacity="0"/>
    </linearGradient>
    <linearGradient id="card1" x1="0" y1="0" x2="1" y2="1">
      <stop offset="0%" stop-color="#122b6e"/>
      <stop offset="100%" stop-color="#1D4ED8"/>
    </linearGradient>
    <linearGradient id="bar1" x1="0" y1="0" x2="0" y2="1">
      <stop offset="0%" stop-color="#60A5FA"/>
      <stop offset="100%" stop-color="#1D4ED8"/>
    </linearGradient>
    <linearGradient id="bar2" x1="0" y1="0" x2="0" y2="1">
      <stop offset="0%" stop-color="#34D399"/>
      <stop offset="100%" stop-color="#059669"/>
    </linearGradient>
    <linearGradient id="textG" x1="0" y1="0" x2="1" y2="0">
      <stop offset="0%" stop-color="#3B82F6"/>
      <stop offset="100%" stop-color="#60A5FA"/>
    </linearGradient>
    <filter id="sh"><feDropShadow dx="0" dy="12" stdDeviation="20" flood-color="#000" flood-opacity="0.7"/></filter>
    <filter id="glow"><feDropShadow dx="0" dy="0" stdDeviation="10" flood-color="#3B82F6" flood-opacity="0.35"/></filter>
  </defs>

  <!-- Background -->
  <rect width="1400" height="800" fill="url(#bg)"/>
  <!-- grid -->
  <pattern id="g" width="36" height="36" patternUnits="userSpaceOnUse">
    <path d="M36 0H0V36" fill="none" stroke="#fff" stroke-width="0.3" opacity="0.04"/>
  </pattern>
  <rect width="1400" height="800" fill="url(#g)"/>
  <!-- glow -->
  <ellipse cx="900" cy="350" rx="600" ry="350" fill="url(#glowL)" opacity="0.6"/>

  <!-- ═══════════════════════════════════════════════════════════
       LEFT PANEL — hero text
  ══════════════════════════════════════════════════════════════ -->
  <rect x="40" y="90" width="200" height="28" rx="14" fill="rgba(59,130,246,0.12)" stroke="#3B82F6" stroke-width="0.8" stroke-opacity="0.4"/>
  <circle cx="60" cy="104" r="4" fill="#10B981"/>
  <text x="71" y="108" font-family="Inter,sans-serif" font-size="10" font-weight="700" fill="#34D399" letter-spacing="0.5">LIVE · Power BI</text>

  <text x="40" y="165" font-family="Inter,sans-serif" font-size="46" font-weight="900" fill="#fff">Dashboard</text>
  <text x="40" y="218" font-family="Inter,sans-serif" font-size="46" font-weight="900" fill="url(#textG)">Saints Massas</text>

  <text x="40" y="255" font-family="Inter,sans-serif" font-size="15" fill="#94A3B8">Sistema completo de Business</text>
  <text x="40" y="275" font-family="Inter,sans-serif" font-size="15" fill="#94A3B8">Intelligence para gestão operacional.</text>

  <line x1="40" y1="300" x2="200" y2="300" stroke="#3B82F6" stroke-width="1.5" opacity="0.5"/>

  <!-- stat pills -->
  <rect x="40" y="318" width="108" height="66" rx="12" fill="url(#card1)" stroke="rgba(59,130,246,0.3)" stroke-width="0.8"/>
  <text x="55" y="340" font-family="Inter,sans-serif" font-size="8" fill="rgba(255,255,255,0.55)" letter-spacing="0.5">MÓDULOS</text>
  <text x="55" y="365" font-family="Inter,sans-serif" font-size="30" font-weight="900" fill="#fff">4</text>

  <rect x="160" y="318" width="108" height="66" rx="12" fill="url(#card1)" stroke="rgba(59,130,246,0.3)" stroke-width="0.8"/>
  <text x="175" y="340" font-family="Inter,sans-serif" font-size="8" fill="rgba(255,255,255,0.55)" letter-spacing="0.5">PEDIDOS</text>
  <text x="175" y="365" font-family="Inter,sans-serif" font-size="28" font-weight="900" fill="#fff">180</text>

  <rect x="40" y="397" width="108" height="66" rx="12" fill="url(#card1)" stroke="rgba(59,130,246,0.3)" stroke-width="0.8"/>
  <text x="55" y="419" font-family="Inter,sans-serif" font-size="8" fill="rgba(255,255,255,0.55)" letter-spacing="0.5">EM CAIXA</text>
  <text x="55" y="444" font-family="Inter,sans-serif" font-size="20" font-weight="900" fill="#fff">R$726</text>

  <rect x="160" y="397" width="108" height="66" rx="12" fill="url(#card1)" stroke="rgba(59,130,246,0.3)" stroke-width="0.8"/>
  <text x="175" y="419" font-family="Inter,sans-serif" font-size="8" fill="rgba(255,255,255,0.55)" letter-spacing="0.5">PRODUÇÃO</text>
  <text x="166" y="444" font-family="Inter,sans-serif" font-size="18" font-weight="900" fill="#fff">349.5 kg</text>

  <!-- module pills -->
  <rect x="40" y="486" width="108" height="24" rx="12" fill="rgba(59,130,246,0.1)" stroke="rgba(59,130,246,0.22)" stroke-width="0.8"/>
  <circle cx="57" cy="498" r="4" fill="#3B82F6"/><text x="67" y="502" font-family="Inter,sans-serif" font-size="9" font-weight="600" fill="#60A5FA">Estoque</text>

  <rect x="40" y="518" width="120" height="24" rx="12" fill="rgba(16,185,129,0.1)" stroke="rgba(16,185,129,0.22)" stroke-width="0.8"/>
  <circle cx="57" cy="530" r="4" fill="#10B981"/><text x="67" y="534" font-family="Inter,sans-serif" font-size="9" font-weight="600" fill="#34D399">Produção</text>

  <rect x="40" y="550" width="130" height="24" rx="12" fill="rgba(245,158,11,0.1)" stroke="rgba(245,158,11,0.22)" stroke-width="0.8"/>
  <circle cx="57" cy="562" r="4" fill="#F59E0B"/><text x="67" y="566" font-family="Inter,sans-serif" font-size="9" font-weight="600" fill="#FCD34D">Financeiro</text>

  <rect x="40" y="582" width="108" height="24" rx="12" fill="rgba(239,68,68,0.1)" stroke="rgba(239,68,68,0.22)" stroke-width="0.8"/>
  <circle cx="57" cy="594" r="4" fill="#EF4444"/><text x="67" y="598" font-family="Inter,sans-serif" font-size="9" font-weight="600" fill="#F87171">Clientes</text>

  <!-- tech chips -->
  <rect x="40" y="626" width="76" height="22" rx="11" fill="rgba(255,255,255,0.04)" stroke="rgba(255,255,255,0.07)" stroke-width="0.8"/>
  <text x="78" y="641" font-family="Inter,sans-serif" font-size="9" fill="#94A3B8" text-anchor="middle" font-weight="600">Power BI</text>
  <rect x="126" y="626" width="56" height="22" rx="11" fill="rgba(255,255,255,0.04)" stroke="rgba(255,255,255,0.07)" stroke-width="0.8"/>
  <text x="154" y="641" font-family="Inter,sans-serif" font-size="9" fill="#94A3B8" text-anchor="middle" font-weight="600">Excel</text>
  <rect x="191" y="626" width="46" height="22" rx="11" fill="rgba(255,255,255,0.04)" stroke="rgba(255,255,255,0.07)" stroke-width="0.8"/>
  <text x="214" y="641" font-family="Inter,sans-serif" font-size="9" fill="#94A3B8" text-anchor="middle" font-weight="600">DAX</text>
  <rect x="247" y="626" width="46" height="22" rx="11" fill="rgba(255,255,255,0.04)" stroke="rgba(255,255,255,0.07)" stroke-width="0.8"/>
  <text x="270" y="641" font-family="Inter,sans-serif" font-size="9" fill="#94A3B8" text-anchor="middle" font-weight="600">VBA</text>

  <!-- separator -->
  <line x1="600" y1="50" x2="600" y2="760" stroke="rgba(59,130,246,0.1)" stroke-width="1"/>

  <!-- ═══════════════════════════════════════════════════════════
       RIGHT PANEL — Dashboard screenshot replica
  ══════════════════════════════════════════════════════════════ -->

  <!-- Monitor outer frame -->
  <rect x="618" y="42" width="754" height="520" rx="12" fill="#0A1020" stroke="rgba(59,130,246,0.3)" stroke-width="1.5" filter="url(#sh)"/>
  <!-- screen bezel -->
  <rect x="632" y="54" width="726" height="490" rx="8" fill="#05090F"/>
  <!-- top chrome bar -->
  <rect x="632" y="54" width="726" height="30" rx="8" fill="#050A18"/>
  <circle cx="650" cy="69" r="5" fill="#EF4444"/>
  <circle cx="665" cy="69" r="5" fill="#F59E0B"/>
  <circle cx="680" cy="69" r="5" fill="#10B981"/>
  <!-- address pill -->
  <rect x="736" y="61" width="200" height="16" rx="8" fill="rgba(255,255,255,0.05)"/>
  <text x="836" y="73" font-family="Inter,sans-serif" font-size="7.5" fill="#64748B" text-anchor="middle">saints-massas · painel financeiro</text>
  <!-- top-right buttons -->
  <rect x="1300" y="61" width="48" height="16" rx="8" fill="rgba(59,130,246,0.15)" stroke="rgba(59,130,246,0.2)" stroke-width="0.6"/>
  <text x="1324" y="73" font-family="Inter,sans-serif" font-size="7" fill="#60A5FA" text-anchor="middle" font-weight="600">Exportar</text>

  <!-- ── Sidebar ── -->
  <rect x="632" y="84" width="46" height="460" fill="#040C1E"/>
  <rect x="638" y="90" width="34" height="34" rx="8" fill="rgba(59,130,246,0.2)" stroke="rgba(59,130,246,0.35)" stroke-width="0.8"/>
  <!-- sidebar nav icons (simple geometric) -->
  <!-- Estoque: box -->
  <rect x="647" y="140" width="15" height="12" rx="3" fill="none" stroke="#4B5563" stroke-width="1.2"/><line x1="647" y1="146" x2="662" y2="146" stroke="#4B5563" stroke-width="0.8"/>
  <!-- Producao: gear approx circle -->
  <circle cx="655" cy="170" r="6" fill="none" stroke="#4B5563" stroke-width="1.2"/><circle cx="655" cy="170" r="2.5" fill="#4B5563"/>
  <!-- Financeiro: active $ -->
  <rect x="643" y="190" width="24" height="24" rx="5" fill="rgba(59,130,246,0.25)" stroke="#3B82F6" stroke-width="0.8"/>
  <text x="655" y="206" font-family="Inter,sans-serif" font-size="10" fill="#60A5FA" text-anchor="middle" font-weight="800">$</text>
  <!-- Clientes: people -->
  <circle cx="655" cy="235" r="4" fill="none" stroke="#4B5563" stroke-width="1.2"/><path d="M646 248 Q655 242 664 248" fill="none" stroke="#4B5563" stroke-width="1.2"/>

  <!-- ── Main Dashboard Area ── -->
  <!-- Title row -->
  <text x="692" y="102" font-family="Inter,sans-serif" font-size="13" font-weight="800" fill="#fff">💰 Painel Financeiro</text>
  <text x="692" y="116" font-family="Inter,sans-serif" font-size="8" fill="#64748B">Dados atualizados · 7 abr 2026 09:42 — Período: Jan–Dez 2024</text>
  <!-- status dot -->
  <circle cx="1340" cy="100" r="5" fill="#10B981"/>
  <text x="1355" y="104" font-family="Inter,sans-serif" font-size="8" fill="#34D399">Ao vivo</text>

  <!-- Tab strip -->
  <line x1="692" y1="126" x2="1350" y2="126" stroke="rgba(255,255,255,0.06)" stroke-width="0.8"/>
  <text x="692" y="122" font-family="Inter,sans-serif" font-size="8" fill="#60A5FA" font-weight="700">Financeiro</text>
  <rect x="692" y="123" width="52" height="1.5" rx="1" fill="#3B82F6"/>
  <text x="754" y="122" font-family="Inter,sans-serif" font-size="8" fill="#64748B">Estoque</text>
  <text x="802" y="122" font-family="Inter,sans-serif" font-size="8" fill="#64748B">Produção</text>
  <text x="852" y="122" font-family="Inter,sans-serif" font-size="8" fill="#64748B">Clientes</text>

  <!-- ── KPI Row (5 cards) ── -->
  <!-- KPI 1 -->
  <rect x="692" y="136" width="122" height="58" rx="8" fill="url(#card1)" stroke="rgba(59,130,246,0.3)" stroke-width="0.8"/>
  <text x="704" y="151" font-family="Inter,sans-serif" font-size="7" fill="rgba(255,255,255,0.5)">Valor Bruto</text>
  <text x="704" y="172" font-family="Inter,sans-serif" font-size="18" font-weight="900" fill="#fff">R$ 225,00</text>
  <rect x="704" y="178" width="30" height="10" rx="5" fill="rgba(16,185,129,0.2)"/>
  <text x="719" y="186" font-family="Inter,sans-serif" font-size="7" fill="#10B981" text-anchor="middle">▲ 8%</text>

  <!-- KPI 2 -->
  <rect x="824" y="136" width="122" height="58" rx="8" fill="url(#card1)" stroke="rgba(59,130,246,0.3)" stroke-width="0.8"/>
  <text x="836" y="151" font-family="Inter,sans-serif" font-size="7" fill="rgba(255,255,255,0.5)">Valor Líquido</text>
  <text x="836" y="172" font-family="Inter,sans-serif" font-size="16" font-weight="900" fill="#F87171">-R$ 1,32 Mil</text>
  <text x="836" y="186" font-family="Inter,sans-serif" font-size="7" fill="#64748B">Após deduções</text>

  <!-- KPI 3 -->
  <rect x="956" y="136" width="122" height="58" rx="8" fill="url(#card1)" stroke="rgba(59,130,246,0.3)" stroke-width="0.8"/>
  <text x="968" y="151" font-family="Inter,sans-serif" font-size="7" fill="rgba(255,255,255,0.5)">Gastos Totais</text>
  <text x="968" y="172" font-family="Inter,sans-serif" font-size="16" font-weight="900" fill="#FCD34D">R$ 1.548,57</text>
  <rect x="968" y="178" width="34" height="10" rx="5" fill="rgba(239,68,68,0.2)"/>
  <text x="985" y="186" font-family="Inter,sans-serif" font-size="7" fill="#EF4444" text-anchor="middle">▼ 12%</text>

  <!-- KPI 4 -->
  <rect x="1088" y="136" width="122" height="58" rx="8" fill="url(#card1)" stroke="rgba(59,130,246,0.3)" stroke-width="0.8"/>
  <text x="1100" y="151" font-family="Inter,sans-serif" font-size="7" fill="rgba(255,255,255,0.5)">Em Caixa</text>
  <text x="1100" y="172" font-family="Inter,sans-serif" font-size="18" font-weight="900" fill="#34D399">R$ 726,03</text>
  <rect x="1100" y="178" width="36" height="10" rx="5" fill="rgba(16,185,129,0.2)"/>
  <text x="1118" y="186" font-family="Inter,sans-serif" font-size="7" fill="#10B981" text-anchor="middle">▲ 5%</text>

  <!-- KPI 5 -->
  <rect x="1220" y="136" width="122" height="58" rx="8" fill="url(#card1)" stroke="rgba(59,130,246,0.3)" stroke-width="0.8"/>
  <text x="1232" y="151" font-family="Inter,sans-serif" font-size="7" fill="rgba(255,255,255,0.5)">Total do Período</text>
  <text x="1232" y="172" font-family="Inter,sans-serif" font-size="18" font-weight="900" fill="#fff">15 kg</text>
  <text x="1232" y="186" font-family="Inter,sans-serif" font-size="7" fill="#64748B">Massa vendida</text>

  <!-- ── Charts Row ── -->
  <!-- Bar chart panel -->
  <rect x="692" y="206" width="400" height="190" rx="8" fill="rgba(255,255,255,0.02)" stroke="rgba(59,130,246,0.1)" stroke-width="0.8"/>
  <text x="706" y="222" font-family="Inter,sans-serif" font-size="9" font-weight="700" fill="#E2E8F0">Receita por Produto (R$)</text>
  <text x="706" y="234" font-family="Inter,sans-serif" font-size="7" fill="#64748B">Comparativo mensal · 2024</text>

  <!-- axis lines -->
  <line x1="710" y1="375" x2="1082" y2="375" stroke="rgba(255,255,255,0.07)" stroke-width="0.8"/>
  <!-- Y axis guides -->
  <line x1="710" y1="340" x2="1082" y2="340" stroke="rgba(255,255,255,0.04)" stroke-width="0.5" stroke-dasharray="3 3"/>
  <line x1="710" y1="305" x2="1082" y2="305" stroke="rgba(255,255,255,0.04)" stroke-width="0.5" stroke-dasharray="3 3"/>
  <line x1="710" y1="268" x2="1082" y2="268" stroke="rgba(255,255,255,0.04)" stroke-width="0.5" stroke-dasharray="3 3"/>
  <!-- Y labels -->
  <text x="706" y="342" font-family="Inter,sans-serif" font-size="6" fill="#4B5563" text-anchor="end">50</text>
  <text x="706" y="308" font-family="Inter,sans-serif" font-size="6" fill="#4B5563" text-anchor="end">100</text>
  <text x="706" y="271" font-family="Inter,sans-serif" font-size="6" fill="#4B5563" text-anchor="end">150</text>

  <!-- Bars (product A-H) -->
  <!-- A -->
  <rect x="724" y="295" width="28" height="80" rx="3" fill="url(#bar1)"/>
  <text x="738" y="385" font-family="Inter,sans-serif" font-size="6" fill="#64748B" text-anchor="middle">Fr.</text>
  <!-- B -->
  <rect x="764" y="320" width="28" height="55" rx="3" fill="url(#bar1)" opacity="0.8"/>
  <text x="778" y="385" font-family="Inter,sans-serif" font-size="6" fill="#64748B" text-anchor="middle">Sec.</text>
  <!-- C -->
  <rect x="804" y="272" width="28" height="103" rx="3" fill="url(#bar1)"/>
  <text x="818" y="385" font-family="Inter,sans-serif" font-size="6" fill="#64748B" text-anchor="middle">Rech.</text>
  <!-- D -->
  <rect x="844" y="330" width="28" height="45" rx="3" fill="url(#bar2)" opacity="0.85"/>
  <text x="858" y="385" font-family="Inter,sans-serif" font-size="6" fill="#64748B" text-anchor="middle">Esp.</text>
  <!-- E -->
  <rect x="884" y="285" width="28" height="90" rx="3" fill="url(#bar1)"/>
  <text x="898" y="385" font-family="Inter,sans-serif" font-size="6" fill="#64748B" text-anchor="middle">Fr.2</text>
  <!-- F -->
  <rect x="924" y="315" width="28" height="60" rx="3" fill="url(#bar2)" opacity="0.75"/>
  <text x="938" y="385" font-family="Inter,sans-serif" font-size="6" fill="#64748B" text-anchor="middle">Sec.2</text>
  <!-- G -->
  <rect x="964" y="300" width="28" height="75" rx="3" fill="url(#bar1)" opacity="0.9"/>
  <text x="978" y="385" font-family="Inter,sans-serif" font-size="6" fill="#64748B" text-anchor="middle">Int.</text>
  <!-- H -->
  <rect x="1004" y="338" width="28" height="37" rx="3" fill="url(#bar2)" opacity="0.7"/>
  <text x="1018" y="385" font-family="Inter,sans-serif" font-size="6" fill="#64748B" text-anchor="middle">Out.</text>
  <!-- Legend -->
  <rect x="716" y="390" width="7" height="7" rx="2" fill="#3B82F6"/>
  <text x="728" y="398" font-family="Inter,sans-serif" font-size="7" fill="#94A3B8">Massa Fresca / Seca</text>
  <rect x="830" y="390" width="7" height="7" rx="2" fill="#10B981"/>
  <text x="842" y="398" font-family="Inter,sans-serif" font-size="7" fill="#94A3B8">Massa Especial</text>

  <!-- Donut chart panel -->
  <rect x="1106" y="206" width="236" height="190" rx="8" fill="rgba(255,255,255,0.02)" stroke="rgba(59,130,246,0.1)" stroke-width="0.8"/>
  <text x="1120" y="222" font-family="Inter,sans-serif" font-size="9" font-weight="700" fill="#E2E8F0">Mix de Produtos</text>
  <text x="1120" y="234" font-family="Inter,sans-serif" font-size="7" fill="#64748B">Distribuição da receita</text>

  <!-- Donut - using stroke-dasharray trick -->
  <!-- Total circumference at r=50: 314.16 -->
  <circle cx="1170" cy="300" r="50" fill="none" stroke="#3B82F6" stroke-width="20"
    stroke-dasharray="147.6 166.5" stroke-dashoffset="0" transform="rotate(-90,1170,300)" stroke-linecap="round"/>
  <circle cx="1170" cy="300" r="50" fill="none" stroke="#10B981" stroke-width="20"
    stroke-dasharray="62.8 251.3" stroke-dashoffset="-147.6" transform="rotate(-90,1170,300)" stroke-linecap="round"/>
  <circle cx="1170" cy="300" r="50" fill="none" stroke="#F59E0B" stroke-width="20"
    stroke-dasharray="40.8 273.3" stroke-dashoffset="-210.4" transform="rotate(-90,1170,300)" stroke-linecap="round"/>
  <circle cx="1170" cy="300" r="50" fill="none" stroke="#A78BFA" stroke-width="20"
    stroke-dasharray="28.3 285.9" stroke-dashoffset="-251.3" transform="rotate(-90,1170,300)" stroke-linecap="round"/>
  <circle cx="1170" cy="300" r="50" fill="none" stroke="#EF4444" stroke-width="20"
    stroke-dasharray="34.5 279.6" stroke-dashoffset="-279.6" transform="rotate(-90,1170,300)" stroke-linecap="round"/>
  <!-- Center hole + label -->
  <circle cx="1170" cy="300" r="30" fill="#0A1628"/>
  <text x="1170" y="296" font-family="Inter,sans-serif" font-size="7" fill="#94A3B8" text-anchor="middle">Total</text>
  <text x="1170" y="308" font-family="Inter,sans-serif" font-size="11" font-weight="800" fill="#fff" text-anchor="middle">R$225</text>

  <!-- Legend -->
  <circle cx="1230" cy="268" r="4" fill="#3B82F6"/>
  <text x="1238" y="272" font-family="Inter,sans-serif" font-size="7.5" fill="#94A3B8">Fresca  47%</text>
  <circle cx="1230" cy="284" r="4" fill="#10B981"/>
  <text x="1238" y="288" font-family="Inter,sans-serif" font-size="7.5" fill="#94A3B8">Seca    20%</text>
  <circle cx="1230" cy="300" r="4" fill="#F59E0B"/>
  <text x="1238" y="304" font-family="Inter,sans-serif" font-size="7.5" fill="#94A3B8">Recheada 13%</text>
  <circle cx="1230" cy="316" r="4" fill="#A78BFA"/>
  <text x="1238" y="320" font-family="Inter,sans-serif" font-size="7.5" fill="#94A3B8">Especial  9%</text>
  <circle cx="1230" cy="332" r="4" fill="#EF4444"/>
  <text x="1238" y="336" font-family="Inter,sans-serif" font-size="7.5" fill="#94A3B8">Outros  11%</text>

  <!-- ── Bottom panels ── -->
  <!-- Horizontal bars panel -->
  <rect x="692" y="410" width="290" height="116" rx="8" fill="rgba(255,255,255,0.02)" stroke="rgba(59,130,246,0.1)" stroke-width="0.8"/>
  <text x="706" y="426" font-family="Inter,sans-serif" font-size="9" font-weight="700" fill="#E2E8F0">Estoque Atual</text>
  <!-- h-bars -->
  <!-- Farinha 000 -->
  <text x="706" y="446" font-family="Inter,sans-serif" font-size="7" fill="#64748B">Farinha 000</text>
  <rect x="772" y="437" width="180" height="9" rx="4" fill="rgba(255,255,255,0.05)"/>
  <rect x="772" y="437" width="135" height="9" rx="4" fill="#3B82F6" opacity="0.9"/>
  <text x="956" y="446" font-family="Inter,sans-serif" font-size="7" fill="#94A3B8">75%</text>
  <!-- Óleo Soja -->
  <text x="706" y="462" font-family="Inter,sans-serif" font-size="7" fill="#64748B">Óleo Soja</text>
  <rect x="772" y="453" width="180" height="9" rx="4" fill="rgba(255,255,255,0.05)"/>
  <rect x="772" y="453" width="72" height="9" rx="4" fill="#F59E0B" opacity="0.9"/>
  <text x="956" y="462" font-family="Inter,sans-serif" font-size="7" fill="#94A3B8">40%</text>
  <!-- Sal -->
  <text x="706" y="478" font-family="Inter,sans-serif" font-size="7" fill="#64748B">Sal Refinado</text>
  <rect x="772" y="469" width="180" height="9" rx="4" fill="rgba(255,255,255,0.05)"/>
  <rect x="772" y="469" width="99" height="9" rx="4" fill="#10B981" opacity="0.9"/>
  <text x="956" y="478" font-family="Inter,sans-serif" font-size="7" fill="#94A3B8">55%</text>
  <!-- Ovos -->
  <text x="706" y="494" font-family="Inter,sans-serif" font-size="7" fill="#64748B">Ovos (dz)</text>
  <rect x="772" y="485" width="180" height="9" rx="4" fill="rgba(255,255,255,0.05)"/>
  <rect x="772" y="485" width="153" height="9" rx="4" fill="#A78BFA" opacity="0.9"/>
  <text x="956" y="494" font-family="Inter,sans-serif" font-size="7" fill="#94A3B8">85%</text>
  <!-- Temp. Abrir -->
  <text x="706" y="510" font-family="Inter,sans-serif" font-size="7" fill="#64748B">Farinha Trigo</text>
  <rect x="772" y="501" width="180" height="9" rx="4" fill="rgba(255,255,255,0.05)"/>
  <rect x="772" y="501" width="108" height="9" rx="4" fill="#60A5FA" opacity="0.9"/>
  <text x="956" y="510" font-family="Inter,sans-serif" font-size="7" fill="#94A3B8">60%</text>

  <!-- Table panel: pedidos -->
  <rect x="994" y="410" width="348" height="116" rx="8" fill="rgba(255,255,255,0.02)" stroke="rgba(59,130,246,0.1)" stroke-width="0.8"/>
  <text x="1008" y="426" font-family="Inter,sans-serif" font-size="9" font-weight="700" fill="#E2E8F0">Pedidos por Cliente</text>
  <!-- thead -->
  <text x="1008" y="442" font-family="Inter,sans-serif" font-size="7" fill="#64748B">Cliente</text>
  <text x="1168" y="442" font-family="Inter,sans-serif" font-size="7" fill="#64748B">Qtd kg</text>
  <text x="1240" y="442" font-family="Inter,sans-serif" font-size="7" fill="#64748B">Status</text>
  <text x="1310" y="442" font-family="Inter,sans-serif" font-size="7" fill="#64748B">Dias</text>
  <line x1="1008" y1="446" x2="1332" y2="446" stroke="rgba(255,255,255,0.06)" stroke-width="0.6"/>
  <!-- rows -->
  <text x="1008" y="460" font-family="Inter,sans-serif" font-size="7.5" fill="#E2E8F0">Restaurante Alfa</text>
  <text x="1168" y="460" font-family="Inter,sans-serif" font-size="7.5" fill="#E2E8F0">88 kg</text>
  <rect x="1240" y="452" width="36" height="12" rx="6" fill="rgba(16,185,129,0.2)"/>
  <text x="1258" y="461" font-family="Inter,sans-serif" font-size="7" fill="#10B981" text-anchor="middle">Ativo</text>
  <text x="1310" y="460" font-family="Inter,sans-serif" font-size="7.5" fill="#F87171">3 dias</text>

  <text x="1008" y="477" font-family="Inter,sans-serif" font-size="7.5" fill="#E2E8F0">Café Gourmet</text>
  <text x="1168" y="477" font-family="Inter,sans-serif" font-size="7.5" fill="#E2E8F0">65 kg</text>
  <rect x="1240" y="469" width="36" height="12" rx="6" fill="rgba(245,158,11,0.15)"/>
  <text x="1258" y="478" font-family="Inter,sans-serif" font-size="7" fill="#F59E0B" text-anchor="middle">Ativo</text>
  <text x="1310" y="477" font-family="Inter,sans-serif" font-size="7.5" fill="#FCD34D">7 dias</text>

  <text x="1008" y="494" font-family="Inter,sans-serif" font-size="7.5" fill="#E2E8F0">Bistrô Central</text>
  <text x="1168" y="494" font-family="Inter,sans-serif" font-size="7.5" fill="#E2E8F0">55 kg</text>
  <rect x="1240" y="486" width="36" height="12" rx="6" fill="rgba(16,185,129,0.2)"/>
  <text x="1258" y="495" font-family="Inter,sans-serif" font-size="7" fill="#10B981" text-anchor="middle">Ativo</text>
  <text x="1310" y="494" font-family="Inter,sans-serif" font-size="7.5" fill="#34D399">12 dias</text>

  <text x="1008" y="511" font-family="Inter,sans-serif" font-size="7.5" fill="#E2E8F0">Padaria Norte</text>
  <text x="1168" y="511" font-family="Inter,sans-serif" font-size="7.5" fill="#E2E8F0">42 kg</text>
  <rect x="1240" y="503" width="50" height="12" rx="6" fill="rgba(100,116,139,0.2)"/>
  <text x="1265" y="512" font-family="Inter,sans-serif" font-size="7" fill="#64748B" text-anchor="middle">Ausente</text>
  <text x="1310" y="511" font-family="Inter,sans-serif" font-size="7.5" fill="#34D399">18 dias</text>

  <!-- ── Bottom status bar ── -->
  <rect x="632" y="538" width="726" height="26" rx="0" fill="rgba(4,9,20,0.95)" stroke-top="rgba(59,130,246,0.1)"/>
  <circle cx="652" cy="551" r="4" fill="#10B981"/>
  <text x="662" y="555" font-family="Inter,sans-serif" font-size="8" fill="#34D399" font-weight="600">Conectado · Power BI Service</text>
  <text x="800" y="555" font-family="Inter,sans-serif" font-size="8" fill="#475569">Refresh: 15 min</text>
  <text x="1350" y="555" font-family="Inter,sans-serif" font-size="8" fill="#475569" text-anchor="end">v2.4.1 · © Saints Massas</text>

  <!-- Monitor stand -->
  <rect x="940" y="562" width="120" height="20" rx="3" fill="#080E1C"/>
  <rect x="880" y="581" width="240" height="12" rx="4" fill="#070D1A" stroke="rgba(59,130,246,0.08)" stroke-width="0.5"/>

  <!-- Bottom watermark -->
  <text x="990" y="740" font-family="Inter,sans-serif" font-size="16" font-weight="800" fill="rgba(59,130,246,0.06)" text-anchor="middle" letter-spacing="14">SAINTS MASSAS  ·  DASHBOARD</text>
</svg>
